<svg xmlns="http://www.w3.org/2000/svg" width="1600" height="900" viewBox="0 0 1600 900" preserveAspectRatio="xMidYMid slice">
  <rect width="1600" height="900" fill="#EAF2F8"/>
  <g opacity="0.35" fill="none" stroke="#ACCADD" stroke-width="2">
    <circle cx="200" cy="180" r="120"/>
    <circle cx="1420" cy="160" r="140"/>
    <circle cx="1300" cy="760" r="170"/>
    <circle cx="260" cy="740" r="150"/>
  </g>

    <g fill="none" stroke="#6FA3C5" stroke-width="3.2" stroke-linecap="round" stroke-linejoin="round" opacity="0.7">
    <!-- Logo-style pet badges (enhanced features) -->
    <g transform="translate(360,240)">
      <circle cx="0" cy="0" r="46" fill="#F7FBFF" stroke="#ACCADD"/>
      <!-- Dog head -->
      <circle cx="0" cy="0" r="24"/>
      <path d="M-26 -2c-12-8-16-24-6-36 10 4 18 16 20 30"/>
      <path d="M26 -2c12-8 16-24 6-36-10 4-18 16-20 30"/>
      <circle cx="-9" cy="-4" r="3"/>
      <circle cx="9" cy="-4" r="3"/>
      <ellipse cx="0" cy="10" rx="10" ry="7"/>
      <circle cx="0" cy="8" r="3" fill="#6FA3C5" stroke="none"/>
      <path d="M-6 14c6 6 12 6 18 0"/>
    </g>

    <g transform="translate(1240,220)">
      <circle cx="0" cy="0" r="42" fill="#F7FBFF" stroke="#ACCADD"/>
      <!-- Cat head -->
      <circle cx="0" cy="2" r="21"/>
      <path d="M-16 -10l-14-18-2 26"/>
      <path d="M16 -10l14-18 2 26"/>
      <circle cx="-7" cy="2" r="2.6"/>
      <circle cx="7" cy="2" r="2.6"/>
      <circle cx="0" cy="8" r="2.6" fill="#6FA3C5" stroke="none"/>
      <path d="M-4 12c4 3 8 3 12 0"/>
      <path d="M-20 6h12"/>
      <path d="M8 6h12"/>
      <path d="M-18 12h10"/>
      <path d="M8 12h10"/>
    </g>

    <g transform="translate(980,700)">
      <circle cx="0" cy="0" r="40" fill="#F7FBFF" stroke="#ACCADD"/>
      <!-- Rabbit head -->
      <circle cx="0" cy="8" r="19"/>
      <path d="M-8 -18c-2-22 4-38 14-42 10 4 12 24 8 44"/>
      <path d="M8 -18c2-22-4-38-14-42-10 4-12 24-8 44"/>
      <circle cx="-6" cy="8" r="2.6"/>
      <circle cx="6" cy="8" r="2.6"/>
      <circle cx="0" cy="14" r="2.4" fill="#6FA3C5" stroke="none"/>
      <path d="M-3 18c4 4 8 4 12 0"/>
      <path d="M-3 22v8"/>
      <path d="M3 22v8"/>
    </g>

    <!-- Paw print -->
    <g transform="translate(620,150) scale(0.95)">
      <circle cx="-10" cy="0" r="5.5"/>
      <circle cx="10" cy="0" r="5.5"/>
      <circle cx="-24" cy="12" r="4.8"/>
      <circle cx="24" cy="12" r="4.8"/>
      <circle cx="0" cy="22" r="7.5"/>
    </g>
  </g>


    <g transform="translate(1240,220)">
      <circle cx="0" cy="0" r="40" fill="#F7FBFF" stroke="#ACCADD"/>
      <!-- Cat head -->
      <circle cx="0" cy="2" r="20"/>
      <path d="M-14 -8l-12-18-2 24"/>
      <path d="M14 -8l12-18 2 24"/>
      <circle cx="-6" cy="2" r="2.3"/>
      <circle cx="6" cy="2" r="2.3"/>
      <path d="M-2 12c4 3 8 3 12 0"/>
      <path d="M-18 8h12"/>
      <path d="M6 8h12"/>
    </g>

    <g transform="translate(980,700)">
      <circle cx="0" cy="0" r="38" fill="#F7FBFF" stroke="#ACCADD"/>
      <!-- Rabbit head -->
      <circle cx="0" cy="6" r="18"/>
      <path d="M-6 -16c-2-20 4-34 12-36 8 4 10 22 6 40"/>
      <path d="M6 -16c2-20-4-34-12-36-8 4-10 22-6 40"/>
      <circle cx="-5" cy="6" r="2.2"/>
      <circle cx="5" cy="6" r="2.2"/>
      <path d="M-2 16c4 4 8 4 12 0"/>
      <path d="M0 20v8"/>
      <path d="M6 20v8"/>
    </g>

    <!-- Paw print -->
    <g transform="translate(620,150) scale(0.9)">
      <circle cx="-10" cy="0" r="5"/>
      <circle cx="10" cy="0" r="5"/>
      <circle cx="-24" cy="12" r="4.5"/>
      <circle cx="24" cy="12" r="4.5"/>
      <circle cx="0" cy="22" r="7"/>
    </g>
  </g>
</svg>
